STARTFONT 2.1
FONT -Monotype-Book Antiqua-Bold-I-Normal--14-100-100-100-P-74-iso8859-2
SIZE 10 100 100
FONTBOUNDINGBOX 17 18 -2 -4

STARTPROPERTIES 24
FOUNDRY "Monotype"
FAMILY_NAME "Book Antiqua"
WEIGHT_NAME "Bold"
SLANT "I"
SETWIDTH_NAME "Normal"
ADD_STYLE_NAME ""
PIXEL_SIZE 14
POINT_SIZE 100
RESOLUTION_X 100
RESOLUTION_Y 100
SPACING "P"
AVERAGE_WIDTH 74
CHARSET_REGISTRY "iso8859"
CHARSET_ENCODING "2"
FACE_NAME "Book Antiqua Bold Italic ISO Latin2"
_DEC_DEVICE_FONTNAMES "PS=bookantiqua-bit-lat2"
COPYRIGHT "Copyright (c) 1994 Monotype Typography Ltd."
CAP_HEIGHT 12
X_HEIGHT 8
WEIGHT 10
QUAD_WIDTH 9
DEFAULT_CHAR 160
FONT_DESCENT 4
FONT_ASCENT 14
ENDPROPERTIES

CHARS 191

STARTCHAR space
ENCODING 32
SWIDTH 250 0
DWIDTH 4 0
BBX 0 0 0 0
BITMAP
ENDCHAR

STARTCHAR exclam
ENCODING 33
SWIDTH 333 0
DWIDTH 5 0
BBX 4 11 1 0
BITMAP
30
30
30
30
60
60
60
60
00
C0
C0
ENDCHAR

STARTCHAR quotedbl
ENCODING 34
SWIDTH 500 0
DWIDTH 7 0
BBX 5 5 1 5
BITMAP
D8
D8
D8
48
48
ENDCHAR

STARTCHAR numbersign
ENCODING 35
SWIDTH 606 0
DWIDTH 8 0
BBX 8 10 1 0
BITMAP
12
12
12
7F
24
24
FE
48
48
48
ENDCHAR

STARTCHAR dollar
ENCODING 36
SWIDTH 500 0
DWIDTH 7 0
BBX 7 12 0 -1
BITMAP
08
1E
3A
6A
68
78
3C
1C
AC
AC
F8
20
ENDCHAR

STARTCHAR percent
ENCODING 37
SWIDTH 889 0
DWIDTH 12 0
BBX 11 10 1 0
BITMAP
2080
7100
B100
B200
A440
44E0
0960
1160
1140
2080
ENDCHAR

STARTCHAR ampersand
ENCODING 38
SWIDTH 833 0
DWIDTH 12 0
BBX 11 10 1 0
BITMAP
1E00
2200
3020
3820
11C0
6700
C580
C080
6100
3E00
ENDCHAR

STARTCHAR quoteright
ENCODING 39
SWIDTH 278 0
DWIDTH 4 0
BBX 3 4 1 7
BITMAP
60
60
40
80
ENDCHAR

STARTCHAR parenleft
ENCODING 40
SWIDTH 333 0
DWIDTH 5 0
BBX 5 15 1 -4
BITMAP
18
30
60
60
60
C0
C0
C0
C0
C0
C0
C0
40
40
20
ENDCHAR

STARTCHAR parenright
ENCODING 41
SWIDTH 333 0
DWIDTH 5 0
BBX 5 15 0 -4
BITMAP
20
10
10
18
18
18
18
18
18
18
30
30
30
60
C0
ENDCHAR

STARTCHAR asterisk
ENCODING 42
SWIDTH 444 0
DWIDTH 6 0
BBX 5 5 1 6
BITMAP
50
F8
20
F8
50
ENDCHAR

STARTCHAR plus
ENCODING 43
SWIDTH 606 0
DWIDTH 8 0
BBX 7 7 1 1
BITMAP
10
10
10
FE
10
10
10
ENDCHAR

STARTCHAR comma
ENCODING 44
SWIDTH 250 0
DWIDTH 4 0
BBX 3 4 0 -2
BITMAP
60
60
40
80
ENDCHAR

STARTCHAR minus
ENCODING 45
SWIDTH 606 0
DWIDTH 8 0
BBX 7 1 1 4
BITMAP
FE
ENDCHAR

STARTCHAR period
ENCODING 46
SWIDTH 250 0
DWIDTH 4 0
BBX 2 2 1 0
BITMAP
C0
C0
ENDCHAR

STARTCHAR slash
ENCODING 47
SWIDTH 315 0
DWIDTH 4 0
BBX 9 15 -2 -4
BITMAP
0180
0300
0300
0600
0600
0C00
0C00
0C00
1800
1800
3000
3000
6000
6000
C000
ENDCHAR

STARTCHAR zero
ENCODING 48
SWIDTH 500 0
DWIDTH 7 0
BBX 7 10 0 0
BITMAP
18
24
66
66
C6
C6
CC
CC
48
30
ENDCHAR

STARTCHAR one
ENCODING 49
SWIDTH 500 0
DWIDTH 7 0
BBX 6 10 0 0
BITMAP
04
0C
3C
0C
18
18
18
30
30
FC
ENDCHAR

STARTCHAR two
ENCODING 50
SWIDTH 500 0
DWIDTH 7 0
BBX 7 10 0 0
BITMAP
1C
26
46
06
0C
08
10
20
7C
F8
ENDCHAR

STARTCHAR three
ENCODING 51
SWIDTH 500 0
DWIDTH 7 0
BBX 6 10 1 0
BITMAP
38
4C
0C
08
30
08
0C
8C
98
70
ENDCHAR

STARTCHAR four
ENCODING 52
SWIDTH 500 0
DWIDTH 7 0
BBX 7 10 0 0
BITMAP
02
06
0E
16
2C
4C
FE
18
18
7E
ENDCHAR

STARTCHAR five
ENCODING 53
SWIDTH 500 0
DWIDTH 7 0
BBX 7 10 0 0
BITMAP
3E
3C
20
60
78
4C
0C
8C
98
70
ENDCHAR

STARTCHAR six
ENCODING 54
SWIDTH 500 0
DWIDTH 7 0
BBX 6 10 1 0
BITMAP
1C
20
60
60
F8
CC
CC
CC
D8
70
ENDCHAR

STARTCHAR seven
ENCODING 55
SWIDTH 500 0
DWIDTH 7 0
BBX 7 10 1 0
BITMAP
7E
FC
0C
08
18
10
30
30
60
60
ENDCHAR

STARTCHAR eight
ENCODING 56
SWIDTH 500 0
DWIDTH 7 0
BBX 7 10 0 0
BITMAP
3C
66
66
74
38
6C
CC
CC
CC
78
ENDCHAR

STARTCHAR nine
ENCODING 57
SWIDTH 500 0
DWIDTH 7 0
BBX 6 10 1 0
BITMAP
38
6C
CC
CC
CC
7C
18
18
10
E0
ENDCHAR

STARTCHAR colon
ENCODING 58
SWIDTH 250 0
DWIDTH 4 0
BBX 3 7 1 0
BITMAP
60
60
00
00
00
C0
C0
ENDCHAR

STARTCHAR semicolon
ENCODING 59
SWIDTH 250 0
DWIDTH 4 0
BBX 4 9 0 -2
BITMAP
30
30
00
00
00
60
60
40
80
ENDCHAR

STARTCHAR less
ENCODING 60
SWIDTH 606 0
DWIDTH 8 0
BBX 7 7 1 1
BITMAP
02
0E
38
E0
38
0E
02
ENDCHAR

STARTCHAR equal
ENCODING 61
SWIDTH 606 0
DWIDTH 8 0
BBX 7 3 1 3
BITMAP
FE
00
FE
ENDCHAR

STARTCHAR greater
ENCODING 62
SWIDTH 606 0
DWIDTH 8 0
BBX 7 7 1 1
BITMAP
80
E0
38
0E
38
E0
80
ENDCHAR

STARTCHAR question
ENCODING 63
SWIDTH 444 0
DWIDTH 6 0
BBX 5 11 1 0
BITMAP
70
D8
98
18
10
20
40
40
00
C0
C0
ENDCHAR

STARTCHAR at
ENCODING 64
SWIDTH 833 0
DWIDTH 12 0
BBX 11 11 1 -1
BITMAP
1F80
2040
47A0
8D20
9B20
9320
9EC0
9B00
4020
2040
1F80
ENDCHAR

STARTCHAR A
ENCODING 65
SWIDTH 722 0
DWIDTH 10 0
BBX 10 10 0 0
BITMAP
0180
0380
0380
0580
0980
1F80
1180
2180
4180
E3C0
ENDCHAR

STARTCHAR B
ENCODING 66
SWIDTH 667 0
DWIDTH 9 0
BBX 9 10 0 0
BITMAP
3F00
1980
1980
3180
3F00
3200
3300
6300
6600
FC00
ENDCHAR

STARTCHAR C
ENCODING 67
SWIDTH 685 0
DWIDTH 10 0
BBX 9 10 1 0
BITMAP
1F80
3080
6080
6000
C000
C000
C000
C000
6100
3E00
ENDCHAR

STARTCHAR D
ENCODING 68
SWIDTH 778 0
DWIDTH 11 0
BBX 10 10 1 0
BITMAP
3F00
1980
18C0
30C0
30C0
30C0
30C0
6180
6100
FE00
ENDCHAR

STARTCHAR E
ENCODING 69
SWIDTH 611 0
DWIDTH 9 0
BBX 10 10 0 0
BITMAP
3FC0
1880
1880
3000
3E00
3000
3000
6100
6200
FE00
ENDCHAR

STARTCHAR F
ENCODING 70
SWIDTH 556 0
DWIDTH 8 0
BBX 9 10 0 0
BITMAP
3F80
1900
1900
3000
3C00
3000
3000
6000
6000
F000
ENDCHAR

STARTCHAR G
ENCODING 71
SWIDTH 778 0
DWIDTH 11 0
BBX 10 10 1 0
BITMAP
0F80
3080
6080
6000
C000
C3C0
C180
C100
6200
3C00
ENDCHAR

STARTCHAR H
ENCODING 72
SWIDTH 778 0
DWIDTH 11 0
BBX 12 10 0 0
BITMAP
3CF0
1860
1860
30C0
3FC0
30C0
30C0
6180
6180
F3C0
ENDCHAR

STARTCHAR I
ENCODING 73
SWIDTH 389 0
DWIDTH 5 0
BBX 6 10 0 0
BITMAP
3C
18
18
30
30
30
30
60
60
F0
ENDCHAR

STARTCHAR J
ENCODING 74
SWIDTH 389 0
DWIDTH 5 0
BBX 7 13 -1 -3
BITMAP
1E
0C
0C
0C
18
18
18
18
30
30
30
20
C0
ENDCHAR

STARTCHAR K
ENCODING 75
SWIDTH 722 0
DWIDTH 10 0
BBX 11 10 0 0
BITMAP
3C60
18C0
1980
3200
3C00
3C00
3600
6300
6380
F1C0
ENDCHAR

STARTCHAR L
ENCODING 76
SWIDTH 611 0
DWIDTH 9 0
BBX 8 10 1 0
BITMAP
3C
18
18
30
30
30
30
61
62
FE
ENDCHAR

STARTCHAR M
ENCODING 77
SWIDTH 944 0
DWIDTH 13 0
BBX 14 10 0 0
BITMAP
3C3C
1C38
1C58
1C98
2CB0
2D30
2E30
4E60
4C60
ECF0
ENDCHAR

STARTCHAR N
ENCODING 78
SWIDTH 778 0
DWIDTH 11 0
BBX 11 10 0 0
BITMAP
38E0
1840
1C40
1C40
2C80
2680
2680
4700
4300
E300
ENDCHAR

STARTCHAR O
ENCODING 79
SWIDTH 833 0
DWIDTH 12 0
BBX 10 10 1 0
BITMAP
0F00
3180
60C0
60C0
C0C0
C0C0
C180
C180
6300
3C00
ENDCHAR

STARTCHAR P
ENCODING 80
SWIDTH 667 0
DWIDTH 9 0
BBX 10 10 0 0
BITMAP
3F80
18C0
18C0
30C0
3180
3700
3000
6000
6000
F000
ENDCHAR

STARTCHAR Q
ENCODING 81
SWIDTH 833 0
DWIDTH 12 0
BBX 10 13 1 -3
BITMAP
0F00
3180
60C0
60C0
C0C0
C0C0
C180
C180
6300
1C00
3800
4E40
0380
ENDCHAR

STARTCHAR R
ENCODING 82
SWIDTH 722 0
DWIDTH 10 0
BBX 11 10 0 0
BITMAP
3F80
18C0
18C0
3080
3F00
3300
3300
6180
6180
F0E0
ENDCHAR

STARTCHAR S
ENCODING 83
SWIDTH 556 0
DWIDTH 8 0
BBX 8 10 0 0
BITMAP
1F
31
61
60
7C
3E
06
86
84
F8
ENDCHAR

STARTCHAR T
ENCODING 84
SWIDTH 611 0
DWIDTH 9 0
BBX 10 10 0 0
BITMAP
7FC0
4C80
8C80
1800
1800
1800
1800
3000
3000
7800
ENDCHAR

STARTCHAR U
ENCODING 85
SWIDTH 778 0
DWIDTH 11 0
BBX 11 10 1 0
BITMAP
71E0
30C0
30C0
6180
6180
6180
C300
C300
C700
7B80
ENDCHAR

STARTCHAR V
ENCODING 86
SWIDTH 667 0
DWIDTH 9 0
BBX 9 10 1 0
BITMAP
F380
6100
6200
6200
6400
6800
6800
7000
7000
6000
ENDCHAR

STARTCHAR W
ENCODING 87
SWIDTH 1000 0
DWIDTH 14 0
BBX 14 10 1 0
BITMAP
F19C
6388
6388
6590
6590
69A0
69A0
71C0
71C0
6180
ENDCHAR

STARTCHAR X
ENCODING 88
SWIDTH 722 0
DWIDTH 10 0
BBX 10 10 0 0
BITMAP
79C0
3080
1900
1A00
0C00
0E00
1600
2300
4300
E780
ENDCHAR

STARTCHAR Y
ENCODING 89
SWIDTH 611 0
DWIDTH 9 0
BBX 9 10 1 0
BITMAP
6180
3100
3200
3400
3800
3800
3000
6000
6000
F000
ENDCHAR

STARTCHAR Z
ENCODING 90
SWIDTH 667 0
DWIDTH 9 0
BBX 9 10 1 0
BITMAP
3F80
2180
4300
0600
0C00
1800
3000
6100
C200
FE00
ENDCHAR

STARTCHAR bracketleft
ENCODING 91
SWIDTH 333 0
DWIDTH 5 0
BBX 6 15 0 -4
BITMAP
3C
30
30
30
60
60
60
60
60
60
C0
C0
C0
C0
F0
ENDCHAR

STARTCHAR backslash
ENCODING 92
SWIDTH 606 0
DWIDTH 8 0
BBX 7 15 1 -4
BITMAP
C0
60
60
60
30
30
30
18
18
18
18
0C
0C
0C
06
ENDCHAR

STARTCHAR bracketright
ENCODING 93
SWIDTH 333 0
DWIDTH 5 0
BBX 6 15 0 -4
BITMAP
3C
0C
0C
0C
0C
18
18
18
18
18
18
30
30
30
F0
ENDCHAR

STARTCHAR asciicircum
ENCODING 94
SWIDTH 606 0
DWIDTH 8 0
BBX 7 6 1 4
BITMAP
10
38
28
6C
44
C6
ENDCHAR

STARTCHAR underscore
ENCODING 95
SWIDTH 500 0
DWIDTH 7 0
BBX 7 1 0 -2
BITMAP
FE
ENDCHAR

STARTCHAR quoteleft
ENCODING 96
SWIDTH 278 0
DWIDTH 4 0
BBX 3 4 1 7
BITMAP
20
40
C0
C0
ENDCHAR

STARTCHAR a
ENCODING 97
SWIDTH 556 0
DWIDTH 8 0
BBX 8 7 0 0
BITMAP
1B
37
63
66
C6
CD
76
ENDCHAR

STARTCHAR b
ENCODING 98
SWIDTH 537 0
DWIDTH 8 0
BBX 7 11 1 0
BITMAP
10
70
30
30
7C
66
66
C6
C4
C8
70
ENDCHAR

STARTCHAR c
ENCODING 99
SWIDTH 444 0
DWIDTH 6 0
BBX 6 7 0 0
BITMAP
3C
64
C0
C0
C0
C8
70
ENDCHAR

STARTCHAR d
ENCODING 100
SWIDTH 556 0
DWIDTH 8 0
BBX 8 11 0 0
BITMAP
01
07
03
03
36
4E
C6
CC
CC
DD
6E
ENDCHAR

STARTCHAR e
ENCODING 101
SWIDTH 444 0
DWIDTH 6 0
BBX 6 7 0 0
BITMAP
38
64
CC
F8
C0
C8
70
ENDCHAR

STARTCHAR f
ENCODING 102
SWIDTH 333 0
DWIDTH 5 0
BBX 9 15 -2 -4
BITMAP
0380
0580
0D00
0C00
3E00
1800
1800
1800
1800
1800
3000
3000
3000
A000
C000
ENDCHAR

STARTCHAR g
ENCODING 103
SWIDTH 500 0
DWIDTH 7 0
BBX 8 11 -1 -4
BITMAP
1D
36
32
32
1C
10
38
6C
C4
EC
78
ENDCHAR

STARTCHAR h
ENCODING 104
SWIDTH 556 0
DWIDTH 8 0
BBX 8 11 0 0
BITMAP
10
70
30
30
6C
76
66
66
CC
CD
C6
ENDCHAR

STARTCHAR i
ENCODING 105
SWIDTH 333 0
DWIDTH 5 0
BBX 5 10 1 0
BITMAP
18
18
00
30
F0
60
60
C0
D0
60
ENDCHAR

STARTCHAR j
ENCODING 106
SWIDTH 333 0
DWIDTH 5 0
BBX 6 14 -1 -4
BITMAP
0C
0C
00
08
38
18
18
18
30
30
30
60
40
80
ENDCHAR

STARTCHAR k
ENCODING 107
SWIDTH 556 0
DWIDTH 8 0
BBX 8 11 0 0
BITMAP
10
70
30
30
67
6C
78
70
D8
CD
C6
ENDCHAR

STARTCHAR l
ENCODING 108
SWIDTH 333 0
DWIDTH 5 0
BBX 4 11 1 0
BITMAP
10
70
30
30
60
60
60
60
C0
D0
60
ENDCHAR

STARTCHAR m
ENCODING 109
SWIDTH 833 0
DWIDTH 12 0
BBX 12 7 0 0
BITMAP
2CC0
F760
6660
6660
CCC0
CCD0
CC60
ENDCHAR

STARTCHAR n
ENCODING 110
SWIDTH 556 0
DWIDTH 8 0
BBX 8 7 0 0
BITMAP
2C
F6
66
66
CC
CD
C6
ENDCHAR

STARTCHAR o
ENCODING 111
SWIDTH 556 0
DWIDTH 8 0
BBX 7 7 1 0
BITMAP
1C
66
C6
C6
C6
CC
70
ENDCHAR

STARTCHAR p
ENCODING 112
SWIDTH 556 0
DWIDTH 8 0
BBX 8 10 0 -3
BITMAP
16
7B
33
33
63
76
6C
C0
C0
80
ENDCHAR

STARTCHAR q
ENCODING 113
SWIDTH 537 0
DWIDTH 8 0
BBX 7 11 1 -4
BITMAP
1A
26
66
CC
CC
DC
6C
18
18
18
10
ENDCHAR

STARTCHAR r
ENCODING 114
SWIDTH 389 0
DWIDTH 5 0
BBX 6 7 0 0
BITMAP
2C
F8
60
60
C0
C0
C0
ENDCHAR

STARTCHAR s
ENCODING 115
SWIDTH 444 0
DWIDTH 6 0
BBX 6 7 0 0
BITMAP
3C
64
70
38
18
98
F0
ENDCHAR

STARTCHAR t
ENCODING 116
SWIDTH 389 0
DWIDTH 5 0
BBX 5 9 1 0
BITMAP
10
30
F8
60
60
C0
C0
D0
60
ENDCHAR

STARTCHAR u
ENCODING 117
SWIDTH 556 0
DWIDTH 8 0
BBX 8 7 1 0
BITMAP
26
E6
66
6C
CC
CD
76
ENDCHAR

STARTCHAR v
ENCODING 118
SWIDTH 556 0
DWIDTH 8 0
BBX 7 7 0 0
BITMAP
64
B6
32
62
62
64
38
ENDCHAR

STARTCHAR w
ENCODING 119
SWIDTH 833 0
DWIDTH 12 0
BBX 11 7 0 0
BITMAP
6240
B260
3220
6620
6620
6A40
3180
ENDCHAR

STARTCHAR x
ENCODING 120
SWIDTH 500 0
DWIDTH 7 0
BBX 7 7 0 0
BITMAP
64
B6
38
10
38
DA
4C
ENDCHAR

STARTCHAR y
ENCODING 121
SWIDTH 556 0
DWIDTH 8 0
BBX 8 11 0 -4
BITMAP
13
73
33
66
66
6E
34
0C
48
D8
70
ENDCHAR

STARTCHAR z
ENCODING 122
SWIDTH 500 0
DWIDTH 7 0
BBX 7 7 0 0
BITMAP
32
5E
0C
18
30
74
D8
ENDCHAR

STARTCHAR braceleft
ENCODING 123
SWIDTH 333 0
DWIDTH 5 0
BBX 7 15 0 -4
BITMAP
06
08
18
18
30
30
C0
60
20
30
30
30
60
60
30
ENDCHAR

STARTCHAR bar
ENCODING 124
SWIDTH 606 0
DWIDTH 8 0
BBX 2 15 3 -4
BITMAP
C0
C0
C0
C0
C0
C0
C0
C0
C0
C0
C0
C0
C0
C0
C0
ENDCHAR

STARTCHAR braceright
ENCODING 125
SWIDTH 333 0
DWIDTH 5 0
BBX 7 15 0 -4
BITMAP
18
0C
0C
18
18
18
08
0C
06
18
18
30
30
20
C0
ENDCHAR

STARTCHAR asciitilde
ENCODING 126
SWIDTH 606 0
DWIDTH 8 0
BBX 6 2 1 4
BITMAP
74
B8
ENDCHAR

STARTCHAR space
ENCODING 160
SWIDTH 250 0
DWIDTH 5 0
BBX 0 0 0 0
BITMAP
ENDCHAR

STARTCHAR Aogonek
ENCODING 161
SWIDTH 722 0
DWIDTH 10 0
BBX 10 12 0 -2
BITMAP
0180
0380
0380
0580
0980
1F80
1180
2180
4180
E3C0
0100
00C0
ENDCHAR

STARTCHAR breve
ENCODING 162
SWIDTH 333 0
DWIDTH 5 0
BBX 5 2 0 8
BITMAP
88
70
ENDCHAR

STARTCHAR Lslash
ENCODING 163
SWIDTH 611 0
DWIDTH 9 0
BBX 8 10 1 0
BITMAP
3C
18
18
34
38
30
30
E1
62
FE
ENDCHAR

STARTCHAR currency
ENCODING 164
SWIDTH 606 0
DWIDTH 8 0
BBX 7 7 1 2
BITMAP
BA
6C
C6
82
C6
6C
BA
ENDCHAR

STARTCHAR Lcaron
ENCODING 165
SWIDTH 611 0
DWIDTH 9 0
BBX 9 10 1 0
BITMAP
3D80
1980
1900
3200
3000
3000
3000
6100
6200
FE00
ENDCHAR

STARTCHAR Sacute
ENCODING 166
SWIDTH 556 0
DWIDTH 8 0
BBX 8 13 0 0
BITMAP
06
08
00
1F
31
61
60
7C
3E
06
86
84
F8
ENDCHAR

STARTCHAR section
ENCODING 167
SWIDTH 556 0
DWIDTH 8 0
BBX 8 15 0 -4
BITMAP
06
0B
19
38
2C
6C
66
66
36
36
14
18
98
D8
70
ENDCHAR

STARTCHAR dieresis
ENCODING 168
SWIDTH 333 0
DWIDTH 5 0
BBX 5 2 1 8
BITMAP
D8
D8
ENDCHAR

STARTCHAR Scaron
ENCODING 169
SWIDTH 556 0
DWIDTH 8 0
BBX 8 13 0 0
BITMAP
09
06
00
1F
31
61
60
7C
3E
06
86
84
F8
ENDCHAR

STARTCHAR Scommaaccent
ENCODING 170
SWIDTH 556 0
DWIDTH 8 0
BBX 8 14 0 -4
BITMAP
1F
31
61
60
7C
3E
06
86
84
F8
00
30
20
40
ENDCHAR

STARTCHAR Tcaron
ENCODING 171
SWIDTH 611 0
DWIDTH 9 0
BBX 10 13 0 0
BITMAP
0900
0600
0000
7FC0
4C80
8C80
1800
1800
1800
1800
3000
3000
7800
ENDCHAR

STARTCHAR Zacute
ENCODING 172
SWIDTH 667 0
DWIDTH 9 0
BBX 9 13 1 0
BITMAP
0600
0800
0000
3F80
2180
4300
0600
0C00
1800
3000
6100
C200
FE00
ENDCHAR

STARTCHAR hyphen
ENCODING 173
SWIDTH 389 0
DWIDTH 5 0
BBX 5 1 0 2
BITMAP
F8
ENDCHAR

STARTCHAR Zcaron
ENCODING 174
SWIDTH 667 0
DWIDTH 9 0
BBX 9 13 1 0
BITMAP
0900
0600
0000
3F80
2180
4300
0600
0C00
1800
3000
6100
C200
FE00
ENDCHAR

STARTCHAR Zdotaccent
ENCODING 175
SWIDTH 667 0
DWIDTH 9 0
BBX 9 13 1 0
BITMAP
0600
0600
0000
3F80
2180
4300
0600
0C00
1800
3000
6100
C200
FE00
ENDCHAR

STARTCHAR degree
ENCODING 176
SWIDTH 396 0
DWIDTH 6 0
BBX 5 5 0 5
BITMAP
70
D8
D8
D8
70
ENDCHAR

STARTCHAR aogonek
ENCODING 177
SWIDTH 556 0
DWIDTH 8 0
BBX 8 9 0 -2
BITMAP
1B
37
63
66
C6
CD
76
04
03
ENDCHAR

STARTCHAR ogonek
ENCODING 178
SWIDTH 333 0
DWIDTH 5 0
BBX 3 2 1 -2
BITMAP
80
60
ENDCHAR

STARTCHAR lslash
ENCODING 179
SWIDTH 333 0
DWIDTH 5 0
BBX 5 11 1 0
BITMAP
10
70
38
30
60
60
E0
60
C0
D0
60
ENDCHAR

STARTCHAR acute
ENCODING 180
SWIDTH 333 0
DWIDTH 5 0
BBX 3 2 1 8
BITMAP
60
80
ENDCHAR

STARTCHAR lcaron
ENCODING 181
SWIDTH 434 0
DWIDTH 5 0
BBX 7 11 1 0
BITMAP
16
76
34
38
60
60
60
60
C0
D0
60
ENDCHAR

STARTCHAR sacute
ENCODING 182
SWIDTH 444 0
DWIDTH 6 0
BBX 6 10 0 0
BITMAP
0C
10
00
3C
64
70
38
18
98
F0
ENDCHAR

STARTCHAR caron
ENCODING 183
SWIDTH 333 0
DWIDTH 5 0
BBX 4 2 1 8
BITMAP
90
60
ENDCHAR

STARTCHAR commaaccent
ENCODING 184
SWIDTH 333 0
DWIDTH 5 0
BBX 3 3 1 -4
BITMAP
60
40
80
ENDCHAR

STARTCHAR scaron
ENCODING 185
SWIDTH 444 0
DWIDTH 6 0
BBX 6 10 0 0
BITMAP
24
18
00
3C
64
70
38
18
98
F0
ENDCHAR

STARTCHAR scommaaccent
ENCODING 186
SWIDTH 444 0
DWIDTH 6 0
BBX 6 11 0 -4
BITMAP
3C
64
70
38
18
98
F0
00
60
40
80
ENDCHAR

STARTCHAR tcaron
ENCODING 187
SWIDTH 439 0
DWIDTH 5 0
BBX 7 11 1 0
BITMAP
06
06
14
38
F8
60
60
C0
C0
D0
60
ENDCHAR

STARTCHAR zacute
ENCODING 188
SWIDTH 500 0
DWIDTH 7 0
BBX 7 10 0 0
BITMAP
06
08
00
32
5E
0C
18
30
74
D8
ENDCHAR

STARTCHAR hungarumlaut
ENCODING 189
SWIDTH 333 0
DWIDTH 5 0
BBX 7 2 0 8
BITMAP
66
88
ENDCHAR

STARTCHAR zcaron
ENCODING 190
SWIDTH 500 0
DWIDTH 7 0
BBX 7 10 0 0
BITMAP
12
0C
00
32
5E
0C
18
30
74
D8
ENDCHAR

STARTCHAR zdotaccent
ENCODING 191
SWIDTH 500 0
DWIDTH 7 0
BBX 7 10 0 0
BITMAP
0C
0C
00
32
5E
0C
18
30
74
D8
ENDCHAR

STARTCHAR Racute
ENCODING 192
SWIDTH 722 0
DWIDTH 10 0
BBX 11 13 0 0
BITMAP
0300
0400
0000
3F80
18C0
18C0
3080
3F00
3300
3300
6180
6180
F0E0
ENDCHAR

STARTCHAR Aacute
ENCODING 193
SWIDTH 722 0
DWIDTH 10 0
BBX 10 13 0 0
BITMAP
00C0
0100
0000
0180
0380
0380
0580
0980
1F80
1180
2180
4180
E3C0
ENDCHAR

STARTCHAR Acircumflex
ENCODING 194
SWIDTH 722 0
DWIDTH 10 0
BBX 10 13 0 0
BITMAP
0180
0240
0000
0180
0380
0380
0580
0980
1F80
1180
2180
4180
E3C0
ENDCHAR

STARTCHAR Abreve
ENCODING 195
SWIDTH 722 0
DWIDTH 10 0
BBX 11 13 0 0
BITMAP
0220
01C0
0000
0180
0380
0380
0580
0980
1F80
1180
2180
4180
E3C0
ENDCHAR

STARTCHAR Adieresis
ENCODING 196
SWIDTH 722 0
DWIDTH 10 0
BBX 11 13 0 0
BITMAP
0360
0360
0000
0180
0380
0380
0580
0980
1F80
1180
2180
4180
E3C0
ENDCHAR

STARTCHAR Lacute
ENCODING 197
SWIDTH 611 0
DWIDTH 9 0
BBX 8 13 1 0
BITMAP
06
08
00
3C
18
18
30
30
30
30
61
62
FE
ENDCHAR

STARTCHAR Cacute
ENCODING 198
SWIDTH 685 0
DWIDTH 10 0
BBX 9 13 1 0
BITMAP
0300
0400
0000
1F80
3080
6080
6000
C000
C000
C000
C000
6100
3E00
ENDCHAR

STARTCHAR Ccedilla
ENCODING 199
SWIDTH 685 0
DWIDTH 10 0
BBX 9 13 1 -3
BITMAP
1F80
3080
6080
6000
C000
C000
C000
C000
6100
3E00
0800
0400
1800
ENDCHAR

STARTCHAR Ccaron
ENCODING 200
SWIDTH 685 0
DWIDTH 10 0
BBX 9 13 1 0
BITMAP
0900
0600
0000
1F80
3080
6080
6000
C000
C000
C000
C000
6100
3E00
ENDCHAR

STARTCHAR Eacute
ENCODING 201
SWIDTH 611 0
DWIDTH 9 0
BBX 10 13 0 0
BITMAP
0300
0400
0000
3FC0
1880
1880
3000
3E00
3000
3000
6100
6200
FE00
ENDCHAR

STARTCHAR Eogonek
ENCODING 202
SWIDTH 611 0
DWIDTH 9 0
BBX 10 12 0 -2
BITMAP
3FC0
1880
1880
3000
3E00
3000
3000
6100
6200
FE00
0800
0600
ENDCHAR

STARTCHAR Edieresis
ENCODING 203
SWIDTH 611 0
DWIDTH 9 0
BBX 10 13 0 0
BITMAP
0D80
0D80
0000
3FC0
1880
1880
3000
3E00
3000
3000
6100
6200
FE00
ENDCHAR

STARTCHAR Ecaron
ENCODING 204
SWIDTH 611 0
DWIDTH 9 0
BBX 10 13 0 0
BITMAP
0900
0600
0000
3FC0
1880
1880
3000
3E00
3000
3000
6100
6200
FE00
ENDCHAR

STARTCHAR Iacute
ENCODING 205
SWIDTH 389 0
DWIDTH 5 0
BBX 7 13 0 0
BITMAP
06
08
00
3C
18
18
30
30
30
30
60
60
F0
ENDCHAR

STARTCHAR Icircumflex
ENCODING 206
SWIDTH 389 0
DWIDTH 5 0
BBX 7 13 0 0
BITMAP
0C
12
00
3C
18
18
30
30
30
30
60
60
F0
ENDCHAR

STARTCHAR Dcaron
ENCODING 207
SWIDTH 778 0
DWIDTH 11 0
BBX 10 13 1 0
BITMAP
0900
0600
0000
3F00
1980
18C0
30C0
30C0
30C0
30C0
6180
6100
FE00
ENDCHAR

STARTCHAR Dcroat
ENCODING 208
SWIDTH 778 0
DWIDTH 11 0
BBX 10 10 1 0
BITMAP
3F00
1980
18C0
30C0
7CC0
30C0
30C0
6180
6100
FE00
ENDCHAR

STARTCHAR Nacute
ENCODING 209
SWIDTH 778 0
DWIDTH 11 0
BBX 11 13 0 0
BITMAP
0180
0200
0000
38E0
1840
1C40
1C40
2C80
2680
2680
4700
4300
E300
ENDCHAR

STARTCHAR Ncaron
ENCODING 210
SWIDTH 778 0
DWIDTH 11 0
BBX 11 13 0 0
BITMAP
0480
0300
0000
38E0
1840
1C40
1C40
2C80
2680
2680
4700
4300
E300
ENDCHAR

STARTCHAR Oacute
ENCODING 211
SWIDTH 833 0
DWIDTH 12 0
BBX 10 13 1 0
BITMAP
0300
0400
0000
0F00
3180
60C0
60C0
C0C0
C0C0
C180
C180
6300
3C00
ENDCHAR

STARTCHAR Ocircumflex
ENCODING 212
SWIDTH 833 0
DWIDTH 12 0
BBX 10 13 1 0
BITMAP
0600
0900
0000
0F00
3180
60C0
60C0
C0C0
C0C0
C180
C180
6300
3C00
ENDCHAR

STARTCHAR Ohungarumlaut
ENCODING 213
SWIDTH 833 0
DWIDTH 12 0
BBX 10 13 1 0
BITMAP
0CC0
1100
0000
0F00
3180
60C0
60C0
C0C0
C0C0
C180
C180
6300
3C00
ENDCHAR

STARTCHAR Odieresis
ENCODING 214
SWIDTH 833 0
DWIDTH 12 0
BBX 10 13 1 0
BITMAP
0D80
0D80
0000
0F00
3180
60C0
60C0
C0C0
C0C0
C180
C180
6300
3C00
ENDCHAR

STARTCHAR multiply
ENCODING 215
SWIDTH 606 0
DWIDTH 8 0
BBX 7 6 1 2
BITMAP
C6
6C
38
38
6C
C6
ENDCHAR

STARTCHAR Rcaron
ENCODING 216
SWIDTH 722 0
DWIDTH 10 0
BBX 11 13 0 0
BITMAP
0900
0600
0000
3F80
18C0
18C0
3080
3F00
3300
3300
6180
6180
F0E0
ENDCHAR

STARTCHAR Uring
ENCODING 217
SWIDTH 778 0
DWIDTH 11 0
BBX 11 14 1 0
BITMAP
0200
0500
0200
0000
71E0
30C0
30C0
6180
6180
6180
C300
C300
C700
7B80
ENDCHAR

STARTCHAR Uacute
ENCODING 218
SWIDTH 778 0
DWIDTH 11 0
BBX 11 13 1 0
BITMAP
0300
0400
0000
71E0
30C0
30C0
6180
6180
6180
C300
C300
C700
7B80
ENDCHAR

STARTCHAR Uhungarumlaut
ENCODING 219
SWIDTH 778 0
DWIDTH 11 0
BBX 11 13 1 0
BITMAP
0CC0
1100
0000
71E0
30C0
30C0
6180
6180
6180
C300
C300
C700
7B80
ENDCHAR

STARTCHAR Udieresis
ENCODING 220
SWIDTH 778 0
DWIDTH 11 0
BBX 11 13 1 0
BITMAP
0D80
0D80
0000
71E0
30C0
30C0
6180
6180
6180
C300
C300
C700
7B80
ENDCHAR

STARTCHAR Yacute
ENCODING 221
SWIDTH 611 0
DWIDTH 9 0
BBX 9 13 1 0
BITMAP
0600
0800
0000
6180
3100
3200
3400
3800
3800
3000
6000
6000
F000
ENDCHAR

STARTCHAR Tcommaaccent
ENCODING 222
SWIDTH 611 0
DWIDTH 9 0
BBX 10 14 0 -4
BITMAP
7FC0
4C80
8C80
1800
1800
1800
1800
3000
3000
7800
0000
3000
2000
4000
ENDCHAR

STARTCHAR germandbls
ENCODING 223
SWIDTH 556 0
DWIDTH 8 0
BBX 9 15 -1 -4
BITMAP
0700
0980
1980
1980
3900
1A00
1B00
3300
3300
3300
3600
3000
6000
6000
C000
ENDCHAR

STARTCHAR racute
ENCODING 224
SWIDTH 389 0
DWIDTH 5 0
BBX 6 10 0 0
BITMAP
0C
10
00
2C
F8
60
60
C0
C0
C0
ENDCHAR

STARTCHAR aacute
ENCODING 225
SWIDTH 556 0
DWIDTH 8 0
BBX 8 10 0 0
BITMAP
03
04
00
1B
37
63
66
C6
CD
76
ENDCHAR

STARTCHAR acircumflex
ENCODING 226
SWIDTH 556 0
DWIDTH 8 0
BBX 8 10 0 0
BITMAP
06
09
00
1B
37
63
66
C6
CD
76
ENDCHAR

STARTCHAR abreve
ENCODING 227
SWIDTH 556 0
DWIDTH 8 0
BBX 8 10 0 0
BITMAP
11
0E
00
1B
37
63
66
C6
CD
76
ENDCHAR

STARTCHAR adieresis
ENCODING 228
SWIDTH 556 0
DWIDTH 8 0
BBX 8 10 0 0
BITMAP
1B
1B
00
1B
37
63
66
C6
CD
76
ENDCHAR

STARTCHAR lacute
ENCODING 229
SWIDTH 333 0
DWIDTH 5 0
BBX 6 14 1 0
BITMAP
0C
10
00
10
70
30
30
60
60
60
60
C0
D0
60
ENDCHAR

STARTCHAR cacute
ENCODING 230
SWIDTH 444 0
DWIDTH 6 0
BBX 6 10 0 0
BITMAP
0C
10
00
3C
64
C0
C0
C0
C8
70
ENDCHAR

STARTCHAR ccedilla
ENCODING 231
SWIDTH 444 0
DWIDTH 6 0
BBX 6 10 0 -3
BITMAP
3C
64
C0
C0
C0
C8
70
20
10
60
ENDCHAR

STARTCHAR ccaron
ENCODING 232
SWIDTH 444 0
DWIDTH 6 0
BBX 6 10 0 0
BITMAP
24
18
00
3C
64
C0
C0
C0
C8
70
ENDCHAR

STARTCHAR eacute
ENCODING 233
SWIDTH 444 0
DWIDTH 6 0
BBX 6 10 0 0
BITMAP
0C
10
00
38
64
CC
F8
C0
C8
70
ENDCHAR

STARTCHAR eogonek
ENCODING 234
SWIDTH 444 0
DWIDTH 6 0
BBX 6 9 0 -2
BITMAP
38
64
CC
F8
C0
C8
70
20
18
ENDCHAR

STARTCHAR edieresis
ENCODING 235
SWIDTH 444 0
DWIDTH 6 0
BBX 7 10 0 0
BITMAP
36
36
00
38
64
CC
F8
C0
C8
70
ENDCHAR

STARTCHAR ecaron
ENCODING 236
SWIDTH 444 0
DWIDTH 6 0
BBX 6 10 0 0
BITMAP
24
18
00
38
64
CC
F8
C0
C8
70
ENDCHAR

STARTCHAR iacute
ENCODING 237
SWIDTH 333 0
DWIDTH 5 0
BBX 5 10 1 0
BITMAP
18
20
00
30
F0
60
60
C0
D0
60
ENDCHAR

STARTCHAR icircumflex
ENCODING 238
SWIDTH 333 0
DWIDTH 5 0
BBX 5 10 1 0
BITMAP
30
48
00
30
F0
60
60
C0
D0
60
ENDCHAR

STARTCHAR dcaron
ENCODING 239
SWIDTH 664 0
DWIDTH 8 0
BBX 11 11 0 0
BITMAP
0160
0760
0340
0380
3600
4E00
C600
CC00
CC00
DD00
6E00
ENDCHAR

STARTCHAR dcroat
ENCODING 240
SWIDTH 556 0
DWIDTH 8 0
BBX 9 11 0 0
BITMAP
0100
0F80
0300
0300
3600
4E00
C600
CC00
CC00
DD00
6E00
ENDCHAR

STARTCHAR nacute
ENCODING 241
SWIDTH 556 0
DWIDTH 8 0
BBX 8 10 0 0
BITMAP
0C
10
00
2C
F6
66
66
CC
CD
C6
ENDCHAR

STARTCHAR ncaron
ENCODING 242
SWIDTH 556 0
DWIDTH 8 0
BBX 8 10 0 0
BITMAP
24
18
00
2C
F6
66
66
CC
CD
C6
ENDCHAR

STARTCHAR oacute
ENCODING 243
SWIDTH 556 0
DWIDTH 8 0
BBX 7 10 1 0
BITMAP
0C
10
00
1C
66
C6
C6
C6
CC
70
ENDCHAR

STARTCHAR ocircumflex
ENCODING 244
SWIDTH 556 0
DWIDTH 8 0
BBX 7 10 1 0
BITMAP
0C
12
00
1C
66
C6
C6
C6
CC
70
ENDCHAR

STARTCHAR ohungarumlaut
ENCODING 245
SWIDTH 556 0
DWIDTH 8 0
BBX 8 10 1 0
BITMAP
33
44
00
1C
66
C6
C6
C6
CC
70
ENDCHAR

STARTCHAR odieresis
ENCODING 246
SWIDTH 556 0
DWIDTH 8 0
BBX 7 10 1 0
BITMAP
36
36
00
1C
66
C6
C6
C6
CC
70
ENDCHAR

STARTCHAR divide
ENCODING 247
SWIDTH 606 0
DWIDTH 8 0
BBX 6 7 1 1
BITMAP
30
30
00
FC
00
30
30
ENDCHAR

STARTCHAR rcaron
ENCODING 248
SWIDTH 389 0
DWIDTH 5 0
BBX 6 10 0 0
BITMAP
24
18
00
2C
F8
60
60
C0
C0
C0
ENDCHAR

STARTCHAR uring
ENCODING 249
SWIDTH 556 0
DWIDTH 8 0
BBX 8 11 1 0
BITMAP
08
14
08
00
26
E6
66
6C
CC
CD
76
ENDCHAR

STARTCHAR uacute
ENCODING 250
SWIDTH 556 0
DWIDTH 8 0
BBX 8 10 1 0
BITMAP
0C
10
00
26
E6
66
6C
CC
CD
76
ENDCHAR

STARTCHAR uhungarumlaut
ENCODING 251
SWIDTH 556 0
DWIDTH 8 0
BBX 8 10 1 0
BITMAP
33
44
00
26
E6
66
6C
CC
CD
76
ENDCHAR

STARTCHAR udieresis
ENCODING 252
SWIDTH 556 0
DWIDTH 8 0
BBX 8 10 1 0
BITMAP
36
36
00
26
E6
66
6C
CC
CD
76
ENDCHAR

STARTCHAR yacute
ENCODING 253
SWIDTH 556 0
DWIDTH 8 0
BBX 8 14 0 -4
BITMAP
06
08
00
13
73
33
66
66
6E
34
0C
48
D8
70
ENDCHAR

STARTCHAR tcommaaccent
ENCODING 254
SWIDTH 389 0
DWIDTH 5 0
BBX 6 13 0 -4
BITMAP
08
18
7C
30
30
60
60
68
30
00
60
40
80
ENDCHAR

STARTCHAR dotaccent
ENCODING 255
SWIDTH 333 0
DWIDTH 5 0
BBX 2 2 2 8
BITMAP
C0
C0
ENDCHAR
ENDFONT
